#N canvas 8 255 723 667 10;
#X declare -lib mrpeach;
#X obj 81 128 routeOSC /accxyz;
#X obj 81 94 unpackOSC;
#X obj 81 164 unpack 0 0 0;
#X obj 81 65 udpreceive 8000;
#X floatatom 37 208 5 0 0 0 - - -;
#X floatatom 140 208 5 0 0 0 - - -;
#X floatatom 234 197 5 0 0 0 - - -;
#X obj 37 245 * 800;
#X obj 234 232 * 800;
#X obj 140 240 220;
#X obj 37 281 pack 0 50;
#X obj 140 275 pack 0 50;
#X obj 234 268 pack 0 50;
#X obj 38 314 line~;
#X obj 141 312 line~;
#X obj 233 311 line~;
#X obj 40 349 osc~;
#X obj 140 347 *~ 5;
#X obj 142 377 *~;
#X obj 226 403 +~;
#X obj 225 429 osc~;
#X obj 228 467 dac~;
#X obj 78 26 import mrpeach;
#X obj 55 556 tabwrite X_graph;
#X obj 474 129 table Y_graph;
#X obj 567 129 table Z_graph;
#X msg 333 555 50;
#X msg 417 596 50;
#X obj 219 587 tabwrite Y_graph;
#X obj 303 628 tabwrite Z_graph;
#X msg 171 517 50;
#X text 311 307 generate audio ramps;
#X text 310 266 creates a compound list from input (symbol float or
pointer);
#X obj 377 128 table X_graph;
#X connect 0 0 2 0;
#X connect 1 0 0 0;
#X connect 2 0 4 0;
#X connect 2 1 5 0;
#X connect 2 2 6 0;
#X connect 3 0 1 0;
#X connect 4 0 7 0;
#X connect 4 0 23 0;
#X connect 5 0 9 0;
#X connect 5 0 28 0;
#X connect 6 0 8 0;
#X connect 6 0 29 0;
#X connect 7 0 10 0;
#X connect 8 0 12 0;
#X connect 9 0 11 0;
#X connect 10 0 13 0;
#X connect 11 0 14 0;
#X connect 12 0 15 0;
#X connect 13 0 16 0;
#X connect 14 0 17 0;
#X connect 15 0 19 1;
#X connect 16 0 18 0;
#X connect 17 0 18 1;
#X connect 18 0 19 0;
#X connect 19 0 20 0;
#X connect 20 0 21 0;
#X connect 20 0 21 1;
#X connect 26 0 28 1;
#X connect 27 0 29 1;
#X connect 30 0 23 1;
